<svg width="1024" height="512" viewBox="0 0 1024 512" fill="none" xmlns="http://www.w3.org/2000/svg">
  <path d="M0 0h1024v512H0z" fill="none"/>
  <path d="M217 228l9 4 7-7 12 7 9-4 8 4-4 8 13 3 9-8 11 3 6 7h11l6-7 10 4 8-4 7 7 12-3 8 4 6-4 11 4 8-4 7 7 12-3 8-8 11 4 6 7h12l5-7 11 3 8-3 6 7 12-4 9 4 6-4 11 4 8-4 7 7 11-3 9-8 10 4 7 7h11l6-7 10 3 8-3 7 7 12-4 8 4 6-4 11 4 8-4 7 7 12-3 8-8 11 4 6 7h12l5-7 11 3 8-3 6 7 12-4 9 4 6-4 11 4 8-4 7 7 11-3 9-8 10 4 7 7h11l6-7" stroke="#fff" strokeWidth="2"/>
</svg>